<?xml version="1.0" encoding="utf-8"?>
<!-- Generator: Adobe Illustrator 15.1.0, SVG Export Plug-In . SVG Version: 6.00 Build 0)  -->
<!DOCTYPE svg PUBLIC "-//W3C//DTD SVG 1.1//EN" "http://www.w3.org/Graphics/SVG/1.1/DTD/svg11.dtd">
<svg version="1.1" xmlns="http://www.w3.org/2000/svg" xmlns:xlink="http://www.w3.org/1999/xlink" x="0px" y="0px" width="600px"
	 height="228px" viewBox="0 0 600 228" enable-background="new 0 0 600 228" xml:space="preserve">
<g id="Layer_1">
	<rect x="23.818" y="78.554" fill="none" width="549.699" height="112.859"/>
	<text transform="matrix(1 0 0 1 49.0376 161.5342)" fill="#36AAB6" font-family="'Mishka'" font-size="119.0161">Lovely Geek</text>
	<g>
		<g id="Left_Lens_7_">
			<path fill="#36AAB6" d="M154.346,62.444c-0.886,3.102-2.121,6.156-4.017,8.972c-1.878,2.81-4.521,5.362-7.757,7.035
				c-3.222,1.688-6.908,2.465-10.472,2.382c-3.592-0.078-7.005-0.874-10.253-2.224c-3.256-1.361-6.293-3.472-8.694-6.125
				c-2.414-2.654-4.08-5.852-5.009-9.13c-0.94-3.291-1.164-6.684-0.934-10.022c0.12-1.669,0.324-3.335,0.626-4.988
				c0.292-1.512,0.414-3.063,0.55-4.631c0.262-3.139,0.301-6.335,0.625-9.581l0.116-1.228l0.008-0.077l0.004-0.039
				c0.015-0.09-0.016,0.079-0.012,0.048l0.012-0.15c0-0.077-0.023,0.063-0.024,0.001l-0.041-0.217
				c-0.06-0.41-0.271-1.037-0.411-2.333c-0.036-0.652-0.12-1.666,0.515-3.006c0.313-0.647,0.829-1.264,1.354-1.676
				c0.259-0.207,0.529-0.384,0.772-0.516l0.189-0.102l0.183-0.088l0.134-0.067c1.711-0.78,3.443-0.713,4.726-0.431
				c1.282,0.284,2.191,0.687,2.971,0.997l1.065,0.428l0.973,0.349l4.542,1.666c2.971,1.074,5.823,2.221,8.556,3.042
				c3.304,0.982,6.638,2.426,9.604,4.388c2.978,1.966,5.566,4.597,7.476,7.632c1.917,3.036,3.083,6.476,3.477,9.856
				C155.602,56,155.241,59.322,154.346,62.444z M153.577,62.226c0.836-3.019,0.675-6.287-0.47-9.098
				c-1.136-2.829-3.163-5.117-5.413-6.905c-2.262-1.804-4.771-3.165-7.317-4.385c-2.568-1.224-5.208-2.169-8.056-2.881
				c-3.409-0.931-6.485-2.187-9.416-3.535l-4.32-1.958c-1.695-0.731-3.278-1.695-3.835-1.864c-0.258-0.111-0.202-0.048,0.026-0.207
				l-0.14,0.054l-0.035,0.014c-0.095,0.042,0.083-0.041,0.082-0.04l0.057-0.031c0.065-0.042,0.169-0.107,0.27-0.194
				c0.209-0.169,0.461-0.474,0.594-0.765c0.269-0.623,0.145-0.808,0.148-0.669c-0.04,0.298,0.123,1.235,0.125,2.422
				c-0.001,0.304-0.013,0.627-0.053,0.979c-0.012,0.136-0.061,0.475-0.087,0.596l-0.035,0.146c0-0.006-0.035,0.188-0.025,0.122
				l-0.01,0.035l-0.02,0.07l-0.314,1.126c-0.791,3.039-1.701,6.156-2.646,9.286c-0.471,1.564-1.017,3.137-1.578,4.701
				c-0.545,1.424-0.978,2.895-1.223,4.396c-0.507,2.99-0.36,6.121,0.71,8.905c1.039,2.801,3.071,5.082,5.47,6.62
				c2.41,1.564,5.157,2.435,7.932,3.126c2.804,0.666,5.694,1.191,8.479,1.459c2.799,0.254,5.586,0.351,8.388-0.109
				c2.788-0.436,5.631-1.541,7.939-3.557C151.112,68.083,152.766,65.267,153.577,62.226z"/>
		</g>
		<g id="Right_Lens_7_">
			<path fill="#36AAB6" d="M173.337,69.059c-0.875,3.023-0.911,6.289,0.034,9.196c0.938,2.918,2.803,5.332,4.966,7.143
				c2.163,1.84,4.6,3.195,7.129,4.421c2.524,1.207,5.271,2.249,8.017,3.124c2.733,0.84,5.536,1.511,8.407,1.415
				c2.849-0.081,5.766-0.985,8.101-2.849c2.353-1.833,4.094-4.439,5.202-7.262c0.564-1.413,0.952-2.896,1.22-4.397l0.508-2.438
				c0.176-0.81,0.369-1.607,0.566-2.403c0.805-3.167,1.633-6.31,2.523-9.32l0.313-1.127l0.019-0.07l0.01-0.035
				c-0.025,0.063,0.046-0.125,0.042-0.119l0.045-0.143c0.04-0.116,0.173-0.431,0.233-0.554c0.147-0.322,0.304-0.603,0.46-0.865
				c0.613-1.015,1.235-1.734,1.355-2.009c0.074-0.117-0.127-0.022-0.219,0.649c-0.036,0.318,0.022,0.709,0.115,0.962
				c0.042,0.126,0.097,0.235,0.13,0.305l0.033,0.056c-0.001-0.001,0.11,0.164,0.051,0.078l-0.023-0.03l-0.092-0.118
				c0.114,0.253,0.193,0.228-0.086,0.189c-0.566-0.143-2.417-0.135-4.247-0.382l-4.71-0.552c-3.206-0.358-6.488-0.868-9.89-1.83
				c-2.807-0.859-5.556-1.411-8.387-1.688c-2.811-0.269-5.662-0.397-8.53-0.019c-2.85,0.37-5.766,1.285-8.199,3.123
				C176.002,63.324,174.178,66.041,173.337,69.059z M172.565,68.849c0.845-3.136,2.249-6.168,4.342-8.864
				c2.081-2.692,4.855-5.038,8.063-6.649c3.202-1.614,6.776-2.533,10.341-2.681c3.553-0.151,7.154,0.333,10.491,1.195
				c2.765,0.707,5.8,1.195,8.899,1.809l4.75,0.916l1.014,0.203l1.133,0.183c0.828,0.137,1.814,0.262,3.059,0.68
				c1.243,0.419,2.761,1.255,3.825,2.805l0.081,0.126l0.112,0.171l0.109,0.184c0.14,0.238,0.28,0.53,0.396,0.84
				c0.237,0.624,0.361,1.418,0.295,2.135c-0.148,1.475-0.742,2.3-1.109,2.84c-0.788,1.038-1.292,1.466-1.557,1.787l-0.147,0.166
				c-0.033,0.053,0.02-0.079-0.021-0.012l-0.066,0.134c-0.013,0.029,0.05-0.136,0.016-0.049l-0.017,0.035l-0.033,0.07l-0.534,1.111
				c-1.397,2.95-3.011,5.706-4.407,8.53c-0.348,0.704-0.693,1.409-1.017,2.114l-0.471,1.046l-0.431,1.09
				c-0.594,1.571-1.279,3.104-2.037,4.596c-1.525,2.979-3.468,5.769-5.97,8.103c-2.488,2.329-5.564,4.209-9.001,5.237
				c-3.425,1.034-7.115,1.275-10.607,0.761c-3.479-0.519-6.814-1.599-9.931-3.385c-3.096-1.767-5.853-4.335-7.741-7.443
				c-1.909-3.103-2.856-6.653-3.016-10.028C171.206,75.216,171.724,71.963,172.565,68.849z"/>
		</g>
		<path id="Center_7_" fill="none" stroke="#36AAB6" stroke-width="8" stroke-miterlimit="10" d="M153.819,59.809
			c0,0,9.153,1.246,11.375,1.891c1.896,0.551,9.393,3.881,9.393,3.881"/>
		<g id="right_7_" display="none">
			<path display="inline" fill="#36AAB6" d="M224.429,60.977c-0.767-5.612-1.636-11.2-2.785-16.678
				c-0.555-2.74-1.186-5.454-1.938-8.095c-0.715-2.642-1.55-5.24-2.611-7.577c-0.536-1.157-1.145-2.25-1.833-3.102
				c-0.663-0.856-1.446-1.444-1.826-1.475l-0.016-0.004l-0.008-0.002c0.325,0.169,0.081,0.043,0.149,0.08l-0.015-0.006l-0.124-0.05
				c-0.025-0.008-0.117-0.053-0.088-0.031c0.03,0.022,0.061,0.042,0.093,0.059c0.031,0.018,0.066,0.033,0.098,0.045l-0.002,0.012
				c0,0.007,0.003,0.01-0.016,0.016c-0.038,0.012-0.161,0.025-0.326,0.035c-0.32,0.015-0.81,0.075-1.322,0.149
				c-1.052,0.163-2.27,0.411-3.52,0.683c-2.518,0.547-5.183,1.229-7.914,1.857c-2.742,0.621-5.552,1.228-8.562,1.563l-0.389-0.699
				c1.954-2.372,4.209-4.285,6.611-6.011c2.418-1.704,4.987-3.19,7.863-4.345c1.447-0.568,2.971-1.045,4.717-1.298
				c0.886-0.118,1.811-0.191,2.904-0.104c0.542,0.04,1.124,0.133,1.773,0.309c0.155,0.039,0.327,0.095,0.496,0.152l0.252,0.087
				l0.345,0.14l0.34,0.154c0.112,0.054,0.097,0.053,0.152,0.083l0.115,0.067l0.194,0.103l0.049,0.031l0.098,0.062
				c2.081,1.404,3.111,3.109,3.922,4.644c0.784,1.564,1.323,3.069,1.782,4.556c1.779,5.918,2.256,11.676,2.526,17.432
				c0.194,5.75,0.109,11.456-0.386,17.148L224.429,60.977z"/>
		</g>
		<g id="left_7_" display="none">
			<path display="inline" fill="#36AAB6" d="M112.595,29.498c2.512-5.131,5.383-10.062,8.515-14.888
				c3.2-4.791,6.579-9.477,11.156-13.629c1.16-1.038,2.398-2.048,3.876-2.983c1.486-0.896,3.248-1.825,5.754-1.955l0.116-0.002
				l0.058-0.001l0.219,0.012l0.133,0.002c0.06,0.003,0.054-0.003,0.168,0.007l0.371,0.044l0.37,0.058l0.262,0.055
				c0.174,0.038,0.351,0.079,0.504,0.125c0.649,0.184,1.196,0.404,1.681,0.65c0.981,0.49,1.736,1.03,2.434,1.588
				c1.365,1.118,2.425,2.312,3.371,3.546c1.868,2.473,3.301,5.072,4.493,7.778c1.167,2.717,2.112,5.521,2.561,8.56l-0.693,0.398
				c-2.406-1.841-4.499-3.81-6.527-5.756c-2.016-1.947-3.946-3.906-5.82-5.674c-0.93-0.878-1.846-1.718-2.662-2.401
				c-0.401-0.328-0.789-0.632-1.055-0.809c-0.136-0.092-0.234-0.168-0.26-0.197c-0.013-0.015-0.008-0.015-0.005-0.021l0.005-0.011
				c0.036,0.006,0.072,0.01,0.109,0.012c0.037,0.002,0.073,0.001,0.11-0.002c0.028-0.004-0.067-0.013-0.095-0.02l-0.131-0.021
				l-0.017-0.002c0.078,0.004-0.196-0.014,0.169,0.009l-0.008-0.002l-0.016-0.004c-0.341-0.169-1.315-0.069-2.325,0.321
				c-1.029,0.375-2.114,0.998-3.17,1.712c-2.114,1.454-4.17,3.249-6.146,5.143c-2.008,1.874-3.948,3.874-5.836,5.934
				c-3.811,4.1-7.437,8.438-10.989,12.85L112.595,29.498z"/>
		</g>
	</g>
</g>
<g id="Layer_2">
	<rect x="24.006" y="79.554" fill="none" width="549.699" height="112.859"/>
	<text transform="matrix(1 0 0 1 49.2251 162.5342)" fill="#FFFFFF" font-family="'Mishka'" font-size="119.0161">Lovely Geek</text>
	<g>
		<g id="Left_Lens_1_">
			<path fill="#FFFFFF" d="M154.534,63.444c-0.886,3.102-2.121,6.156-4.017,8.972c-1.878,2.81-4.521,5.362-7.757,7.035
				c-3.222,1.688-6.908,2.465-10.472,2.382c-3.592-0.078-7.005-0.874-10.253-2.224c-3.256-1.361-6.293-3.472-8.694-6.125
				c-2.414-2.654-4.08-5.852-5.009-9.13c-0.94-3.291-1.164-6.684-0.934-10.022c0.12-1.669,0.324-3.335,0.626-4.988
				c0.292-1.512,0.414-3.063,0.55-4.631c0.262-3.139,0.301-6.335,0.625-9.581l0.116-1.228l0.008-0.077l0.004-0.039
				c0.015-0.09-0.016,0.079-0.012,0.048l0.012-0.15c0-0.077-0.023,0.063-0.024,0.001l-0.041-0.217
				c-0.06-0.41-0.271-1.037-0.411-2.333c-0.036-0.652-0.12-1.666,0.515-3.006c0.313-0.647,0.829-1.264,1.354-1.676
				c0.259-0.207,0.529-0.384,0.772-0.516l0.189-0.102l0.183-0.088l0.134-0.067c1.711-0.78,3.443-0.713,4.726-0.431
				c1.282,0.284,2.191,0.687,2.971,0.997l1.065,0.428l0.973,0.349l4.542,1.666c2.971,1.074,5.823,2.221,8.556,3.042
				c3.304,0.982,6.638,2.426,9.604,4.388c2.978,1.966,5.566,4.597,7.476,7.632c1.917,3.036,3.083,6.476,3.477,9.856
				C155.79,57,155.429,60.322,154.534,63.444z M153.764,63.226c0.836-3.019,0.675-6.287-0.47-9.098
				c-1.136-2.829-3.163-5.117-5.413-6.905c-2.262-1.804-4.771-3.165-7.317-4.385c-2.568-1.224-5.208-2.169-8.056-2.881
				c-3.409-0.931-6.485-2.187-9.416-3.535l-4.32-1.958c-1.695-0.731-3.278-1.695-3.835-1.864c-0.258-0.111-0.202-0.048,0.026-0.207
				l-0.14,0.054l-0.035,0.014c-0.095,0.042,0.083-0.041,0.082-0.04l0.057-0.031c0.065-0.042,0.169-0.107,0.27-0.194
				c0.209-0.169,0.461-0.474,0.594-0.765c0.269-0.623,0.145-0.808,0.148-0.669c-0.04,0.298,0.123,1.235,0.125,2.422
				c-0.001,0.304-0.013,0.627-0.053,0.979c-0.012,0.136-0.061,0.475-0.087,0.596l-0.035,0.146c0-0.006-0.035,0.188-0.025,0.122
				l-0.01,0.035l-0.02,0.07l-0.314,1.126c-0.791,3.039-1.701,6.156-2.646,9.286c-0.471,1.564-1.017,3.137-1.578,4.701
				c-0.545,1.424-0.978,2.895-1.223,4.396c-0.507,2.99-0.36,6.121,0.71,8.905c1.039,2.801,3.071,5.082,5.47,6.62
				c2.41,1.564,5.157,2.435,7.932,3.126c2.804,0.666,5.694,1.191,8.479,1.459c2.799,0.254,5.586,0.351,8.388-0.109
				c2.788-0.436,5.631-1.541,7.939-3.557C151.3,69.083,152.954,66.267,153.764,63.226z"/>
		</g>
		<g id="Right_Lens_1_">
			<path fill="#FFFFFF" d="M173.525,70.059c-0.875,3.023-0.911,6.289,0.034,9.196c0.938,2.918,2.803,5.332,4.966,7.143
				c2.163,1.84,4.6,3.195,7.129,4.421c2.524,1.207,5.271,2.249,8.017,3.124c2.733,0.84,5.536,1.511,8.407,1.415
				c2.849-0.081,5.766-0.985,8.101-2.849c2.353-1.833,4.094-4.439,5.202-7.262c0.564-1.413,0.952-2.896,1.22-4.397l0.508-2.438
				c0.176-0.81,0.369-1.607,0.566-2.403c0.805-3.167,1.633-6.31,2.523-9.32l0.313-1.127l0.019-0.07l0.01-0.035
				c-0.025,0.063,0.046-0.125,0.042-0.119l0.045-0.143c0.04-0.116,0.173-0.431,0.233-0.554c0.147-0.322,0.304-0.603,0.46-0.865
				c0.613-1.015,1.235-1.734,1.355-2.009c0.074-0.117-0.127-0.022-0.219,0.649c-0.036,0.318,0.022,0.709,0.115,0.962
				c0.042,0.126,0.097,0.235,0.13,0.305l0.033,0.056c-0.001-0.001,0.11,0.164,0.051,0.078l-0.023-0.03l-0.092-0.118
				c0.114,0.253,0.193,0.228-0.086,0.189c-0.566-0.143-2.417-0.135-4.247-0.382l-4.71-0.552c-3.206-0.358-6.488-0.868-9.89-1.83
				c-2.807-0.859-5.556-1.411-8.387-1.688c-2.811-0.269-5.662-0.397-8.53-0.019c-2.85,0.37-5.766,1.285-8.199,3.123
				C176.19,64.324,174.366,67.041,173.525,70.059z M172.752,69.849c0.845-3.136,2.249-6.168,4.342-8.864
				c2.081-2.692,4.855-5.038,8.063-6.649c3.202-1.614,6.776-2.533,10.341-2.681c3.553-0.151,7.154,0.333,10.491,1.195
				c2.765,0.707,5.8,1.195,8.899,1.809l4.75,0.916l1.014,0.203l1.133,0.183c0.828,0.137,1.814,0.262,3.059,0.68
				c1.243,0.419,2.761,1.255,3.825,2.805l0.081,0.126l0.112,0.171l0.109,0.184c0.14,0.238,0.28,0.53,0.396,0.84
				c0.237,0.624,0.361,1.418,0.295,2.135c-0.148,1.475-0.742,2.3-1.109,2.84c-0.788,1.038-1.292,1.466-1.557,1.787l-0.147,0.166
				c-0.033,0.053,0.02-0.079-0.021-0.012l-0.066,0.134c-0.013,0.029,0.05-0.136,0.016-0.049l-0.017,0.035l-0.033,0.07l-0.534,1.111
				c-1.397,2.95-3.011,5.706-4.407,8.53c-0.348,0.704-0.693,1.409-1.017,2.114l-0.471,1.046l-0.431,1.09
				c-0.594,1.571-1.279,3.104-2.037,4.596c-1.525,2.979-3.468,5.769-5.97,8.103c-2.488,2.329-5.564,4.209-9.001,5.237
				c-3.425,1.034-7.115,1.275-10.607,0.761c-3.479-0.519-6.814-1.599-9.931-3.385c-3.096-1.767-5.853-4.335-7.741-7.443
				c-1.909-3.103-2.856-6.653-3.016-10.028C171.394,76.216,171.911,72.963,172.752,69.849z"/>
		</g>
		<path id="Center_1_" fill="none" stroke="#FFFFFF" stroke-width="8" stroke-miterlimit="10" d="M154.006,60.809
			c0,0,9.153,1.246,11.375,1.891c1.896,0.551,9.393,3.881,9.393,3.881"/>
		<g id="right_1_" display="none">
			<path display="inline" fill="#FFFFFF" d="M224.616,61.977c-0.767-5.612-1.636-11.2-2.785-16.678
				c-0.555-2.74-1.186-5.454-1.938-8.095c-0.715-2.642-1.55-5.24-2.611-7.577c-0.536-1.157-1.145-2.25-1.833-3.102
				c-0.663-0.856-1.446-1.444-1.826-1.475l-0.016-0.004l-0.008-0.002c0.325,0.169,0.081,0.043,0.149,0.08l-0.015-0.006l-0.124-0.05
				c-0.025-0.008-0.117-0.053-0.088-0.031c0.03,0.022,0.061,0.042,0.093,0.059c0.031,0.018,0.066,0.033,0.098,0.045l-0.002,0.012
				c0,0.007,0.003,0.01-0.016,0.016c-0.038,0.012-0.161,0.025-0.326,0.035c-0.32,0.015-0.81,0.075-1.322,0.149
				c-1.052,0.163-2.27,0.411-3.52,0.683c-2.518,0.547-5.183,1.229-7.914,1.857c-2.742,0.621-5.552,1.228-8.562,1.563l-0.389-0.699
				c1.954-2.372,4.209-4.285,6.611-6.011c2.418-1.704,4.987-3.19,7.863-4.345c1.447-0.568,2.971-1.045,4.717-1.298
				c0.886-0.118,1.811-0.191,2.904-0.104c0.542,0.04,1.124,0.133,1.773,0.309c0.155,0.039,0.327,0.095,0.496,0.152l0.252,0.087
				l0.345,0.14l0.34,0.154c0.112,0.054,0.097,0.053,0.152,0.083l0.115,0.067l0.194,0.103l0.049,0.031l0.098,0.062
				c2.081,1.404,3.111,3.109,3.922,4.644c0.784,1.564,1.323,3.069,1.782,4.556c1.779,5.918,2.256,11.676,2.526,17.432
				c0.194,5.75,0.109,11.456-0.386,17.148L224.616,61.977z"/>
		</g>
		<g id="left_1_" display="none">
			<path display="inline" fill="#FFFFFF" d="M112.782,30.498c2.512-5.131,5.383-10.062,8.515-14.888
				c3.2-4.791,6.579-9.477,11.156-13.629c1.16-1.038,2.398-2.048,3.876-2.983c1.486-0.896,3.248-1.825,5.754-1.955l0.116-0.002
				l0.058-0.001l0.219,0.012l0.133,0.002c0.06,0.003,0.054-0.003,0.168,0.007l0.371,0.044l0.37,0.058l0.262,0.055
				c0.174,0.038,0.351,0.079,0.504,0.125c0.649,0.184,1.196,0.404,1.681,0.65c0.981,0.49,1.736,1.03,2.434,1.588
				c1.365,1.118,2.425,2.312,3.371,3.546c1.868,2.473,3.301,5.072,4.493,7.778c1.167,2.717,2.112,5.521,2.561,8.56l-0.693,0.398
				c-2.406-1.841-4.499-3.81-6.527-5.756c-2.016-1.947-3.946-3.906-5.82-5.674c-0.93-0.878-1.846-1.718-2.662-2.401
				c-0.401-0.328-0.789-0.632-1.055-0.809c-0.136-0.092-0.234-0.168-0.26-0.197c-0.013-0.015-0.008-0.015-0.005-0.021l0.005-0.011
				c0.036,0.006,0.072,0.01,0.109,0.012c0.037,0.002,0.073,0.001,0.11-0.002c0.028-0.004-0.067-0.013-0.095-0.02l-0.131-0.021
				l-0.017-0.002c0.078,0.004-0.196-0.014,0.169,0.009l-0.008-0.002l-0.016-0.004c-0.341-0.169-1.315-0.069-2.325,0.321
				c-1.029,0.375-2.114,0.998-3.17,1.712c-2.114,1.454-4.17,3.249-6.146,5.143c-2.008,1.874-3.948,3.874-5.836,5.934
				c-3.811,4.1-7.437,8.438-10.989,12.85L112.782,30.498z"/>
		</g>
	</g>
</g>
</svg>
